<svg xmlns="http://www.w3.org/2000/svg" width="30.817" height="31.936" viewBox="0 0 30.817 31.936">
  <g id="Group_16242" data-name="Group 16242" transform="translate(-593.073 -372.285)">
    <path id="Path_11788" data-name="Path 11788" d="M641.441,372.285a1.42,1.42,0,0,1,.94,1.537c-.026,2.13-.009,4.26-.009,6.46.124-.1.21-.157.29-.224.64-.531,1.276-1.065,1.918-1.593a1.208,1.208,0,0,1,1.75.1,1.2,1.2,0,0,1-.206,1.74q-2.054,1.7-4.121,3.38a1.185,1.185,0,0,1-1.668,0q-2.066-1.683-4.12-3.381a1.2,1.2,0,1,1,1.543-1.845c.714.585,1.421,1.179,2.183,1.813.007-.157.017-.262.017-.368,0-2.016.017-4.032-.011-6.047a1.456,1.456,0,0,1,.931-1.577Z" transform="translate(-30.024 0)" fill="#fff"/>
    <path id="Path_11789" data-name="Path 11789" d="M621.566,391.529h-3.5a1.151,1.151,0,0,1,.11-.161,3.829,3.829,0,0,0,1-1.662c.052-.177.143-.216.311-.215,1.1.006,2.2,0,3.3.005a1.009,1.009,0,0,1,1.05,1.348q-1.318,5.334-2.641,10.667a1,1,0,0,1-1.025.828c-.125.005-.25,0-.374,0H603.483a5.423,5.423,0,0,0,.987,2.217,2,2,0,0,0,1.478.556c.736.042,1.474.052,2.212.053q5.784.007,11.568,0a2.116,2.116,0,0,1,.465.03,1.013,1.013,0,0,1-.157,1.99c-.052,0-.1.007-.156.007-4.531-.005-9.063,0-13.594-.03a7.113,7.113,0,0,1-1.925-.319,3.218,3.218,0,0,1-2.1-1.949,26.774,26.774,0,0,1-1.046-3.121c-1.131-4.2-2.227-8.405-3.336-12.609a2.006,2.006,0,0,0-2.269-1.763c-.478,0-.956,0-1.434,0a1.035,1.035,0,0,1-1.1-1.028,1.008,1.008,0,0,1,1.085-1.029,17.994,17.994,0,0,1,2.545.132,3.753,3.753,0,0,1,3.108,3.1,2.718,2.718,0,0,1,.116.483c.023.38.222.454.572.442.84-.027,1.682-.009,2.541-.009a4.237,4.237,0,0,0,1.229,2.024h-3.656c.113.431.216.827.321,1.221.642,2.416,1.289,4.832,1.921,7.251a.32.32,0,0,0,.377.29q7.936-.009,15.871,0c.187,0,.316,0,.376-.248.67-2.752,1.357-5.5,2.038-8.251C621.536,391.709,621.546,391.637,621.566,391.529Z" transform="translate(0 -9.195)" fill="#fff"/>
    <path id="Path_11790" data-name="Path 11790" d="M667.507,463.231a2.5,2.5,0,1,1-2.5,2.495A2.5,2.5,0,0,1,667.507,463.231Z" transform="translate(-50.635 -64.017)" fill="#fff"/>
    <path id="Path_11791" data-name="Path 11791" d="M630.4,463.231a2.5,2.5,0,1,1-2.526,2.5A2.5,2.5,0,0,1,630.4,463.231Z" transform="translate(-24.499 -64.017)" fill="#fff"/>
    <path id="Path_11792" data-name="Path 11792" d="M635.851,422.5c0-.176,0-.353,0-.529a.628.628,0,0,1,.681-.645.645.645,0,0,1,.739.622q.018.56,0,1.12a.66.66,0,0,1-.732.637.649.649,0,0,1-.688-.645C635.847,422.876,635.851,422.689,635.851,422.5Z" transform="translate(-30.111 -34.521)" fill="#fff"/>
    <path id="Path_11793" data-name="Path 11793" d="M651.617,422.512c0,.176,0,.353,0,.529a.714.714,0,0,1-1.425-.015q-.007-.513,0-1.027a.713.713,0,0,1,1.425.015C651.619,422.179,651.617,422.346,651.617,422.512Z" transform="translate(-40.204 -34.519)" fill="#fff"/>
    <path id="Path_11794" data-name="Path 11794" d="M665.966,422.525c0,.166,0,.332,0,.5a.711.711,0,0,1-1.421.024c-.009-.363-.011-.726,0-1.089a.644.644,0,0,1,.732-.63.628.628,0,0,1,.688.637C665.969,422.152,665.966,422.339,665.966,422.525Z" transform="translate(-50.304 -34.521)" fill="#fff"/>
  </g>
</svg>
