<svg xmlns="http://www.w3.org/2000/svg" width="29.8" height="24.739" viewBox="0 0 29.8 24.739">
  <g id="Icon_feather-users" data-name="Icon feather-users" transform="translate(-0.6 -3.57)">
    <path id="Path_1" data-name="Path 1" d="M21.864,30.136V27.591A5.091,5.091,0,0,0,16.773,22.5H6.591A5.091,5.091,0,0,0,1.5,27.591v2.545" transform="translate(0 -2.727)" fill="none" stroke="#d54d90" stroke-linecap="round" stroke-linejoin="round" stroke-width="1.8"/>
    <path id="Path_2" data-name="Path 2" d="M17.682,9.591A5.091,5.091,0,1,1,12.591,4.5,5.091,5.091,0,0,1,17.682,9.591Z" transform="translate(-0.909)" fill="none" stroke="#d54d90" stroke-linecap="round" stroke-linejoin="round" stroke-width="1.8"/>
    <path id="Path_3" data-name="Path 3" d="M33.818,30.166V27.62A5.091,5.091,0,0,0,30,22.7" transform="translate(-4.318 -2.757)" fill="none" stroke="#d54d90" stroke-linecap="round" stroke-linejoin="round" stroke-width="1.8"/>
    <path id="Path_4" data-name="Path 4" d="M24,4.7a5.091,5.091,0,0,1,0,9.864" transform="translate(-3.409 -0.03)" fill="none" stroke="#d54d90" stroke-linecap="round" stroke-linejoin="round" stroke-width="1.8"/>
  </g>
</svg>
