<svg xmlns="http://www.w3.org/2000/svg" width="30.861" height="28.295" viewBox="0 0 30.861 28.295">
  <path id="Path_11818" data-name="Path 11818" d="M1979.7-483.115c-1.361-1.187-2.8-2.431-4.4-3.8a.316.316,0,0,1-.036-.035.234.234,0,0,1,0-.057c.007-1.858.006-3.746,0-5.572v-.589a1.543,1.543,0,0,0-1.7-1.688c-.635,0-1.292,0-1.95,0a1.524,1.524,0,0,0-1.652,1.65q0,.72,0,1.44,0,.115,0,.229l-.1-.085c-.921-.8-1.873-1.618-2.807-2.429a2.633,2.633,0,0,0-3.716-.006q-2.965,2.568-5.932,5.134l-2.615,2.263-1.19,1.028c-.966.834-1.965,1.7-2.943,2.552a2.586,2.586,0,0,0-.9,1.9,2.5,2.5,0,0,0,.815,1.886,2.543,2.543,0,0,0,3.36.061c.126-.106.252-.213.377-.321v1.952q0,3.656,0,7.312a3.747,3.747,0,0,0,1.042,2.677,3.732,3.732,0,0,0,2.671,1.051l1.677,0h2.431c.8,0,1.162-.358,1.162-1.161v-8.238a.627.627,0,0,1,.029-.229.631.631,0,0,1,.232-.029c1.091,0,2.175,0,3.224,0a.707.707,0,0,1,.24.028.725.725,0,0,1,.029.246v8.185c0,.85.342,1.2,1.18,1.2h.134c1.364,0,2.773,0,4.161,0a4.1,4.1,0,0,0,.731-.054,3.559,3.559,0,0,0,2.969-3.6c0-2.361,0-4.762,0-7.084q0-1.059,0-2.118c.074.063.149.125.224.186a2.473,2.473,0,0,0,2.762.344,2.446,2.446,0,0,0,1.389-1.9A2.627,2.627,0,0,0,1979.7-483.115Zm-2.3,2.147c-.45-.389-.917-.792-1.37-1.191a1.024,1.024,0,0,0-1.141-.249,1.026,1.026,0,0,0-.581,1.027q0,5.545,0,11.091a1.675,1.675,0,0,1-1.808,1.8h-3.514v-1.963q0-2.726,0-5.451a2.039,2.039,0,0,0-2.242-2.237h-3.173a2.027,2.027,0,0,0-2.191,2.178q0,2.6,0,5.206v2.267h-.1c-1.073,0-2.183,0-3.273,0a1.662,1.662,0,0,1-1.756-1.748c0-2.634,0-5.312,0-7.9q0-1.581,0-3.161c0-.011,0-.036,0-.058a.972.972,0,0,0-.047-.453l-.013-.035a1.1,1.1,0,0,0-.517-.673.856.856,0,0,0-.354-.072,1.133,1.133,0,0,0-.677.225c-.406.326-.8.671-1.182,1l-.413.36-.1.087c-.081.07-.156.137-.234.2a.6.6,0,0,1-.863-.04.581.581,0,0,1,.06-.851c.607-.54,1.236-1.081,1.843-1.6l.708-.611.788-.682,9.414-8.142a.7.7,0,0,1,1.092.012l4.274,3.7.067.056c.035.029.067.056.091.079a.994.994,0,0,0,1.153.233.976.976,0,0,0,.553-.978c0-.883,0-1.781,0-2.649v-.733c.484-.007.97-.007,1.452,0v1.38c0,1.592,0,3.238,0,4.857a1.279,1.279,0,0,0,.468,1.029c1.5,1.291,3,2.586,4.658,4.025a.568.568,0,0,1,.213.649.56.56,0,0,1-.488.429.57.57,0,0,1-.514-.168Z" transform="translate(-1949.766 494.86)" fill="#fff"/>
</svg>
