<svg xmlns="http://www.w3.org/2000/svg" width="29.968" height="27.637" viewBox="0 0 29.968 27.637">
  <g id="people" transform="translate(-774.031 74)">
    <g id="Group_16245" data-name="Group 16245" transform="translate(-78.875 1076.241)">
      <path id="Path_11824" data-name="Path 11824" d="M918.171-1139.664a5.546,5.546,0,0,1-3.207-6.645,5.5,5.5,0,0,1,5.3-3.932,5.5,5.5,0,0,1,5.237,4.116,5.536,5.536,0,0,1-3.248,6.448c.28.1.541.191.8.285a8.047,8.047,0,0,1,5.272,7.363c.05,2.654.012,5.31.018,7.965a.213.213,0,0,1-.176.24,23.694,23.694,0,0,1-15.9-.317c-.165-.061-.195-.147-.194-.3q.012-2.557.012-5.114c0-.7-.008-1.4-.008-2.093a8.119,8.119,0,0,1,5.931-7.97Zm8.622,10.986c0-.966,0-1.932,0-2.9a8.7,8.7,0,0,0-.054-1.044,6.6,6.6,0,0,0-7.147-5.721,6.541,6.541,0,0,0-5.838,5.36,16.551,16.551,0,0,0-.116,2.5c-.016,1.648,0,3.3-.007,4.943,0,.169.038.259.214.315a22.21,22.21,0,0,0,12.716.271.266.266,0,0,0,.239-.313C926.788-1126.405,926.793-1127.541,926.793-1128.678Zm-6.6-12.172a3.918,3.918,0,0,0,3.933-3.925,3.941,3.941,0,0,0-3.925-3.917,3.933,3.933,0,0,0-3.907,3.933A3.919,3.919,0,0,0,920.191-1140.85Z" transform="translate(-52.162)" fill="#fff"/>
      <path id="Path_11825" data-name="Path 11825" d="M1029.267-1092.834a5.2,5.2,0,0,1,3.367,4.151,17.228,17.228,0,0,1,.39,4.013c0,.519.013,1.038.01,1.557a1.294,1.294,0,0,1-.345.883,5.392,5.392,0,0,1-3.162,1.634c-.555.1-1.117.176-1.7.267l-.163-1.531c.578-.094,1.139-.171,1.694-.279a3.955,3.955,0,0,0,1.873-.816.646.646,0,0,0,.271-.55,26.079,26.079,0,0,0-.217-3.885,7.682,7.682,0,0,0-.58-2,3.6,3.6,0,0,0-3.782-2.167c-.305.02-.607.094-.937.147-.087-.3-.185-.605-.266-.917a.519.519,0,0,0-.292-.352,3.847,3.847,0,0,1-2.175-3.59,3.941,3.941,0,0,1,3.89-3.885,3.954,3.954,0,0,1,4,3.8,3.869,3.869,0,0,1-1.684,3.383Zm.325-3.34a2.4,2.4,0,0,0-2.365-2.435,2.409,2.409,0,0,0-2.433,2.368,2.4,2.4,0,0,0,2.366,2.432A2.4,2.4,0,0,0,1029.593-1096.173Z" transform="translate(-150.162 -44.149)" fill="#fff"/>
      <path id="Path_11826" data-name="Path 11826" d="M856.591-1092.8a12.275,12.275,0,0,1-1.087-1.175,3.863,3.863,0,0,1,0-4.474,3.956,3.956,0,0,1,4.15-1.6,3.949,3.949,0,0,1,3.005,3.329,3.93,3.93,0,0,1-2.152,4.046.478.478,0,0,0-.279.333c-.082.312-.18.621-.27.928-.342-.053-.667-.131-.995-.149a3.667,3.667,0,0,0-2.89.964,4.626,4.626,0,0,0-1.181,2.151,14.316,14.316,0,0,0-.435,3.688c-.007.446-.017.893,0,1.339a.593.593,0,0,0,.167.37,3.992,3.992,0,0,0,2.193.963c.472.077.945.144,1.459.222l-.159,1.525c-.386-.05-.761-.092-1.133-.15a6.572,6.572,0,0,1-2.789-.941,6.015,6.015,0,0,1-1.033-.915,1.087,1.087,0,0,1-.25-.664,28.6,28.6,0,0,1,.194-4.642,7.773,7.773,0,0,1,1.295-3.553,4.425,4.425,0,0,1,2.006-1.526Zm-.242-3.383a2.4,2.4,0,0,0,2.44,2.382,2.4,2.4,0,0,0,2.356-2.44,2.407,2.407,0,0,0-2.44-2.36A2.406,2.406,0,0,0,856.349-1096.179Z" transform="translate(0 -44.159)" fill="#fff"/>
    </g>
  </g>
</svg>
