<?xml version="1.0" encoding="utf-8"?>
<!-- Generator: Adobe Illustrator 24.0.1, SVG Export Plug-In . SVG Version: 6.00 Build 0)  -->
<svg version="1.1" id="Layer_1" xmlns="http://www.w3.org/2000/svg" xmlns:xlink="http://www.w3.org/1999/xlink" x="0px" y="0px"
	 viewBox="0 0 339.1 356" style="enable-background:new 0 0 339.1 356;" xml:space="preserve">
<style type="text/css">
	.st0{fill:#202836;}
</style>
<g>
	<path class="st0" d="M265.4,276.2c-19.7,1.1-38.1,2.1-56.4,3.3c-15.9,1-31.8,2.3-47.6,3.5c-7.9,0.6-15.8,1.3-23.7,2
		c-7.5,0.7-14.8,0.1-22.1-1.9c-15.9-4.6-23.7-17.2-20.7-33.5c1.1-5.9,3.2-11.5,6-16.8c0.8-1.5,0.9-2.8,0.4-4.4
		c-8.7-29.1-17.4-58.2-26.1-87.4c-8.5-28.5-16.9-56.9-25.4-85.4c-0.4-1.4-1-1.7-2.4-1.7c-10.1,0.1-20.1,0-30.2,0
		c-8.2,0-14.5-6.1-14.5-14c0-8.1,6.2-14.1,14.5-14.1c13.8,0,27.7,0,41.5,0c7.7,0,12.6,3.7,14.8,11c3.6,11.9,7.1,23.9,10.6,35.8
		c0.5,1.6,1.2,2.1,2.9,2.1c47.3-0.1,94.5-0.1,141.8-0.1c31.7,0,63.3,0,95,0c10.6,0,16.9,7.6,14.9,18.1
		c-7.8,40.5-15.6,80.9-23.4,121.4c-1.2,6.5-5.9,10.9-12.4,11.7c-29.9,3.6-59.8,7.2-89.8,10.9c-27.4,3.3-54.8,6.7-82.3,10
		c-3.7,0.4-7.4,0.8-11.1,1.4c-0.6,0.1-1.5,0.6-1.7,1.1c-0.7,2-1.3,4-1.6,6c-0.5,3.6,0.4,4.9,3.8,6.2c4.5,1.7,9.2,2.1,13.9,1.7
		c12.9-1,25.7-2.3,38.6-3.2c21.2-1.5,42.4-3.2,63.7-4.2c19-0.9,38.1-1.1,57.2-1.6c2,0,4,0.2,6,0.3c6.4,0.4,11,5.3,10.8,11.5
		c-0.3,6.2-5.3,10.8-11.6,10.7c-7.5-0.1-15-0.2-22.5-0.3C272.4,276.1,268.2,276.2,265.4,276.2z M93.5,102.9c0.2,0.9,0.4,1.5,0.6,2.2
		c4.1,13.7,8.2,27.3,12.2,41c0.4,1.5,1,1.9,2.6,1.9c17.4-0.1,34.7,0,52.1,0c0.6,0,1.2,0,1.9,0c0-15.2,0-30.1,0-45.2
		C139.7,102.9,116.8,102.9,93.5,102.9z M176.4,212.6c0.6,0,0.9-0.1,1.2-0.1c18.3-2.2,36.6-4.4,54.9-6.6c1.3-0.2,1.7-0.6,1.7-1.9
		c0-11.6,0-23.1,0-34.7c0-2.6,0-5.1,0-7.8c-19.4,0-38.5,0-57.7,0C176.4,178.6,176.4,195.5,176.4,212.6z M176.4,102.9
		c0,15.1,0,30.1,0,45.1c0.7,0,1.3,0.1,1.8,0.1c17.9,0,35.9,0,53.8,0c1.7,0,2.1-0.6,2.1-2.2c-0.1-13.7,0-27.4-0.1-41.1
		c0-0.6-0.1-1.2-0.1-1.9C214.7,102.9,195.6,102.9,176.4,102.9z M247.6,102.9c0,15.1,0,30,0,45c0.5,0.1,0.9,0.1,1.3,0.1
		c16.4,0,32.7,0,49.1,0.1c1.5,0,1.7-0.8,1.9-1.9c2-10.3,4-20.5,5.9-30.7c0.8-4.1,1.6-8.2,2.4-12.5
		C287.8,102.9,267.8,102.9,247.6,102.9z M162.8,214.3c0-17.8,0-35.2,0-52.8c-17.3,0-34.5,0-51.8,0c0.1,0.5,0.2,0.9,0.3,1.2
		c5.4,18.1,10.8,36.2,16.1,54.3c0.4,1.3,1,1.4,2.2,1.3c6.1-0.8,12.2-1.5,18.4-2.3C152.8,215.5,157.7,214.9,162.8,214.3z
		 M247.5,161.5c0,14.2,0,28.3,0,42.4c0.4,0,0.5,0.1,0.7,0.1c13.3-1.6,26.6-3.3,39.9-4.8c1.4-0.2,1.6-0.9,1.8-2
		c1.6-8.5,3.3-16.9,4.9-25.4c0.7-3.4,1.3-6.8,1.9-10.3C280.3,161.5,263.9,161.5,247.5,161.5z"/>
	<path class="st0" d="M304.4,324.4c0,15.5-12.6,28.1-28.1,28.1c-15.6,0-28.1-12.6-28.1-28.1c0-15.6,12.5-28.1,28-28.2
		C291.9,296.2,304.4,308.7,304.4,324.4z"/>
	<path class="st0" d="M144.4,324.5c0,15.5-12.7,28.1-28.2,28s-28.1-12.8-28-28.2c0.1-15.6,12.8-28.1,28.4-28.1
		C132,296.3,144.4,308.9,144.4,324.5z"/>
</g>
</svg>
