<svg xmlns="http://www.w3.org/2000/svg" width="33.262" height="31.351" viewBox="0 0 33.262 31.351">
  <g id="reports" transform="translate(-909.869 90)">
    <g id="Group_16246" data-name="Group 16246" transform="translate(471.369 1508.494)">
      <path id="Path_11827" data-name="Path 11827" d="M453.8-1550.868c-.622.689-1.149,1.282-1.693,1.859a.544.544,0,0,1-.362.1q-6.1.007-12.2,0c-.68,0-1.048-.418-1.048-1.153q0-6.343,0-12.686,0-6.188,0-12.376c0-.9.351-1.252,1.266-1.254q1.575,0,3.149,0c.144,0,.288.012.449.02v1.951c-.578,0-1.15,0-1.721,0-.821.005-1.192.373-1.192,1.19q0,10.579,0,21.159c0,.809.379,1.185,1.2,1.186q5.744,0,11.489,0Z" transform="translate(0 -20.156)" fill="#fff"/>
      <path id="Path_11828" data-name="Path 11828" d="M647-1390.865l3.38,3.334c-1.124,1.1-2.263,2.192-3.381,3.308q-2.2,2.191-4.362,4.413a5.991,5.991,0,0,1-2.724,1.4c-.606.184-1.225.332-1.847.455-.483.1-.761-.142-.639-.615.314-1.211.683-2.408,1.071-3.6a2,2,0,0,1,.525-.705q3.916-3.95,7.845-7.886A1.14,1.14,0,0,1,647-1390.865Z" transform="translate(-181.248 -189.207)" fill="#fff"/>
      <path id="Path_11829" data-name="Path 11829" d="M673.669-1560.034v-.48q0-6.3,0-12.591c0-.936-.343-1.277-1.282-1.279-.53,0-1.06,0-1.62,0v-1.931a1.5,1.5,0,0,1,.221-.034c1.182,0,2.365-.013,3.547,0a1,1,0,0,1,1.085,1.12q0,6.451,0,12.9a.612.612,0,0,1-.082.372c-.581.664-1.178,1.313-1.77,1.967Z" transform="translate(-211.659 -20.175)" fill="#fff"/>
      <path id="Path_11830" data-name="Path 11830" d="M501.4-1377.373h7.009c.7,0,.83.131.832.824,0,1.142-.005,1.151-1.127,1.151H494.455c-.79,0-.9-.108-.9-.892v-.044c0-.986.05-1.038,1.016-1.038Z" transform="translate(-50.172 -201.502)" fill="#fff"/>
      <path id="Path_11831" data-name="Path 11831" d="M501.4-1465.7h7.045c.644,0,.783.139.787.772.008,1.183,0,1.189-1.166,1.189H494.42c-.768,0-.874-.105-.875-.86,0-.148,0-.3,0-.443.013-.49.177-.656.677-.657Q497.812-1465.7,501.4-1465.7Z" transform="translate(-50.16 -121.015)" fill="#fff"/>
      <path id="Path_11832" data-name="Path 11832" d="M501.431-1509.745h7.005c.686,0,.8.117.807.79.005,1.149,0,1.155-1.16,1.155h-13.7c-.7,0-.827-.127-.829-.821,0-1.124,0-1.124,1.137-1.124Z" transform="translate(-50.169 -80.875)" fill="#fff"/>
      <path id="Path_11833" data-name="Path 11833" d="M501.4-1419.635q-3.548,0-7.1,0c-.622,0-.749-.13-.753-.755-.007-1.2-.007-1.2,1.209-1.2h13.615c.741,0,.864.126.864.881q0,.133,0,.266c0,.689-.114.806-.789.806Z" transform="translate(-50.162 -161.21)" fill="#fff"/>
      <path id="Path_11834" data-name="Path 11834" d="M507.5-1333.022c-.626.687-1.161,1.288-1.716,1.87-.073.076-.246.078-.372.078q-5.584.006-11.168,0c-.56,0-.712-.157-.72-.706-.019-1.244-.019-1.244,1.243-1.244H507.5Z" transform="translate(-50.134 -241.918)" fill="#fff"/>
      <path id="Path_11835" data-name="Path 11835" d="M507.6-1595.515c0,.62.008,1.24,0,1.86a.992.992,0,0,1-1.042,1.067c-.28.01-.561.01-.842,0a.99.99,0,0,1-1.047-1.067q-.017-1.883,0-3.765a.965.965,0,0,1,1-1.06,7.269,7.269,0,0,1,.93,0,.965.965,0,0,1,1,1.059C507.6-1596.785,507.6-1596.15,507.6-1595.515Z" transform="translate(-60.285)" fill="#fff"/>
      <path id="Path_11836" data-name="Path 11836" d="M626.112-1595.554c0-.62-.008-1.24,0-1.86a.966.966,0,0,1,1-1.062,7.38,7.38,0,0,1,.93,0,.949.949,0,0,1,1,1.014q.025,1.926,0,3.853a.977.977,0,0,1-1.039,1.025c-.295.01-.591.013-.886,0a.98.98,0,0,1-1-1.019C626.1-1594.255,626.112-1594.9,626.112-1595.554Z" transform="translate(-170.962 -0.002)" fill="#fff"/>
      <path id="Path_11837" data-name="Path 11837" d="M765.816-1416.2l-3.264-3.4a2.235,2.235,0,0,1,2.284-1.154,3.2,3.2,0,0,1,2.226,2.786,1.017,1.017,0,0,1-.177.578C766.557-1416.984,766.185-1416.609,765.816-1416.2Z" transform="translate(-295.3 -161.929)" fill="#fff"/>
      <path id="Path_11838" data-name="Path 11838" d="M554.944-1574.069h-5.83v-1.909h5.83Z" transform="translate(-100.8 -20.518)" fill="#fff"/>
    </g>
  </g>
</svg>
