<?xml version="1.0" encoding="utf-8"?>
<!-- Generator: Adobe Illustrator 24.0.1, SVG Export Plug-In . SVG Version: 6.00 Build 0)  -->
<svg version="1.1" id="Layer_1" xmlns="http://www.w3.org/2000/svg" xmlns:xlink="http://www.w3.org/1999/xlink" x="0px" y="0px"
	 viewBox="0 0 196.3 215.8" style="enable-background:new 0 0 196.3 215.8;" xml:space="preserve">
<style type="text/css">
	.st0{fill:#202836;}
</style>
<g>
	<path class="st0" d="M34.5,39.4c14,0,27.6,0,41.9,0c0,14,0,27.9,0,42.3c-13.9,0-27.6,0-41.9,0C34.5,68,34.5,54.1,34.5,39.4z
		 M67.9,73.3c0-8.7,0-16.8,0-25.1c-8.6,0-16.7,0-25,0c0,8.6,0,16.6,0,25.1C51.3,73.3,59.3,73.3,67.9,73.3z"/>
	<path class="st0" d="M33.6,95c37.5,0,73.9,0,110.8,0c0,2.7,0,5.1,0,7.9c-36.7,0-73.1,0-110.2,0C34,100.6,33.8,98.2,33.6,95z"/>
	<path class="st0" d="M34,144.6c0-2.8,0-5,0-7.7c36.7,0,73.3,0,110.4,0c0,2.5,0,4.9,0,7.7C107.7,144.6,71.3,144.6,34,144.6z"/>
	<path class="st0" d="M33.6,115.9c37.6,0,74,0,110.8,0c0,2.8,0,5.1,0,7.9c-36.8,0-73.2,0-110.2,0C33.9,121.3,33.8,118.9,33.6,115.9z
		"/>
	<path class="st0" d="M34,165c0-2.7,0-4.8,0-7.4c36.8,0,73.2,0,110.2,0c0,2.3,0,4.6,0,7.4C107.7,165,71.3,165,34,165z"/>
	<path class="st0" d="M144.5,68.1c0,2.7,0,4.9,0,7.7c-16.6,0-33.2,0-50.2,0c0-2.5,0-4.8,0-7.7C110.9,68.1,127.2,68.1,144.5,68.1z"/>
	<path class="st0" d="M94.2,54.9c0-2.7,0-4.9,0-7.5c16.7,0,33.1,0,50.1,0c0,2.5,0,4.8,0,7.5C127.5,54.9,110.9,54.9,94.2,54.9z"/>
	<path class="st0" d="M24.9,202.7c4.6,0,7.6,0,10.5,0c36.1,0,72.1,0,108.2,0c26.3,0,39.3-12.9,39.4-39.1c0.1-45.1,0-90.1,0.1-135.2
		c0-0.5,0.1-1,0.4-2.7c8.2,6,12.3,13.7,12.4,22.8c0.3,41.6,0.7,83.1-0.1,124.7c-0.4,23.1-21.1,42.2-44.6,42.4
		c-33.8,0.4-67.6,0.2-101.4,0C40.3,215.5,32.5,211.4,24.9,202.7z"/>
	<path class="st0" d="M145.6,0h-113C14.6,0,0,14.6,0,32.6v132.7c0,18,14.6,32.6,32.6,32.6h113c18,0,32.6-14.6,32.6-32.6V32.6
		C178.3,14.6,163.6,0,145.6,0z M165,163.1c0,12.1-9.8,21.9-21.9,21.9H35c-12.1,0-21.9-9.8-21.9-21.9V34.5c0-12.1,9.8-21.9,21.9-21.9
		h108.1c12.1,0,21.9,9.8,21.9,21.9V163.1z"/>
</g>
</svg>
