<?xml version="1.0" encoding="utf-8"?>
<!-- Generator: Adobe Illustrator 24.0.1, SVG Export Plug-In . SVG Version: 6.00 Build 0)  -->
<svg version="1.1" id="Layer_1" xmlns="http://www.w3.org/2000/svg" xmlns:xlink="http://www.w3.org/1999/xlink" x="0px" y="0px"
	 viewBox="0 0 253 247.7" style="enable-background:new 0 0 253 247.7;" xml:space="preserve">
<style type="text/css">
	.st0{fill:#202836;}
</style>
<path class="st0" d="M222.4,55.4c0,1.3,0,2.1,0,2.9c0,60.2,0.1,120.3,0.1,180.5c0,1.4-0.1,2.7,0,4.1c0.2,1.7-0.3,3-1.7,3.9
	c-0.6,0.4-1.4,0.9-2.1,0.9c-12.2,0-24.4,0-36.6-0.1c-1.5,0-3-0.1-4.5-0.3c-1.8-0.2-2.4-1-2.4-2.7c0-46.9,0-93.9,0-140.8
	c0-0.8,0.4-1.9,1-2.5c14.8-14.9,29.7-29.7,44.6-44.6C221.2,56.4,221.6,56.1,222.4,55.4z"/>
<path class="st0" d="M124.3,72.9c-4,4-7.7,7.8-11.4,11.5C85,112.2,57,140.1,29,167.9c-3,3-6.3,5.9-9.4,8.9c-0.9,0.9-1.8,1-2.8,0.2
	c-4.3-3.4-8.1-7.3-11.6-11.6c-0.8-1-0.7-1.7,0.1-2.6c6.2-6.4,12.3-12.9,18.6-19.2c29.6-29.6,59.3-59.2,88.9-88.8
	c2.9-2.9,5.9-5.7,9-8.4c2.3-2.1,2.7-2.1,4.9,0c4.8,4.5,9.5,9,14.1,13.6c6.1,6,12.1,12.1,18,18.1c16.4-16.4,32.6-32.7,49-49.1
	c-1.6-1.6-3.5-3.4-5.3-5.2c-1.3-1.3-2.6-2.7-3.8-4.2c-1.1-1.3-1-1.8,0.6-2.3c4.1-1.3,8.3-2.6,12.5-3.8c11.2-3,22.4-6,33.6-9
	c2-0.5,2.5-0.2,2,1.9c-1.1,4.9-2.2,9.8-3.5,14.6c-2.6,10-5.4,20-8.1,30.1c-1.1,4.1-1.4,4.2-4.5,1.3c-2.8-2.6-5.5-5.3-8.5-8.2
	c-1.2,1.3-2.2,2.6-3.4,3.8c-18.5,18.4-37,36.7-55.6,55.1c-1.1,1.1-2.3,2-3.3,3.1s-1.9,1-2.9,0c-4.7-4.6-9.5-9.1-14.2-13.7
	c-6-5.9-11.9-11.9-17.9-17.8C125.2,74.1,124.9,73.6,124.3,72.9z"/>
<path class="st0" d="M124.3,83.2c4.2,4.2,8.2,8.3,12.3,12.4c4.1,4.1,8.2,8.1,12.2,12.3c0.6,0.6,1,1.6,1,2.4
	c0.3,44.5,0.5,88.9,0.7,133.4c0,2.1-1.9,4-4.1,4c-13.3,0-26.5,0-39.8,0c-2.2,0-4-1.8-4-3.9c0-45.8,0-91.7,0-137.5
	c0-0.8,0.3-1.7,0.9-2.3c6.6-6.7,13.3-13.3,20-20C123.7,83.8,123.9,83.6,124.3,83.2z"/>
<path class="st0" d="M77.5,130.1c0,0.9,0,1.5,0,2c0.1,37.3,0.2,74.7,0.2,112c0,2.3-0.7,3.2-2.9,3.3c-4.6,0.2-9.1,0.3-13.7,0.3
	c-8.9,0-17.8,0-26.7,0c-2,0-3.9-1.9-3.9-3.9c0-21.8,0-43.7,0-65.5c0-0.8,0.4-1.8,1-2.4c14.9-15,29.9-30,44.9-44.9
	C76.6,130.8,76.9,130.6,77.5,130.1z"/>
</svg>
