<svg xmlns="http://www.w3.org/2000/svg" width="31.014" height="34.187" viewBox="0 0 31.014 34.187">
  <g id="upcart" transform="translate(-4648.992 -1467)">
    <path id="Path_11819" data-name="Path 11819" d="M1715.428-741.953a4.075,4.075,0,0,0,1.616-.755,3.244,3.244,0,0,0,.857-3.764,3.225,3.225,0,0,0-3.348-1.864,3.193,3.193,0,0,0-2.731,2.72,3.188,3.188,0,0,0,2.481,3.591c.086.021.171.048.256.072Z" transform="translate(2957.401 2243.141)" fill="#fff"/>
    <path id="Path_11820" data-name="Path 11820" d="M1905.212-741.852c.211-.068.426-.13.634-.206a3.209,3.209,0,0,0,2.006-3.628,3.2,3.2,0,0,0-3.213-2.573,3.2,3.2,0,0,0-3.079,2.695,3.2,3.2,0,0,0,2.208,3.566c.148.047.3.1.443.147Z" transform="translate(2754.996 2243.039)" fill="#fff"/>
    <path id="Path_11821" data-name="Path 11821" d="M1699.374-1104.689c-.606.34-1.142.631-1.664.945a.57.57,0,0,0-.2.326c-.087.322-.148.651-.215.978a.34.34,0,0,1-.42.314c-.719-.068-1.44-.126-2.162-.167-.3-.017-.441-.116-.371-.43a.282.282,0,0,0-.285-.387c-.111-.011-.22-.031-.331-.045-.249-.031-.414.047-.436.325-.024.3-.2.421-.5.4-1-.074-2-.141-2.995-.21-.251-.018-.306-.182-.3-.4.021-.511.051-1.022.059-1.533a.926.926,0,0,0-.812-.941c-1.237-.142-2.477-.263-3.716-.392-.144-.015-.287-.031-.431-.049-.68-.084-.682-.084-.756-.756-.017-.155-.021-.311-.026-.466-.015-.511-.013-.515.508-.454.983.116,1.965.238,2.949.351a1.454,1.454,0,0,0,.318-.032,1.762,1.762,0,0,0-.049-.34c-.1-.294-.243-.576-.325-.875a.556.556,0,0,0-.546-.442c-1.337-.153-2.673-.315-4.01-.473q-2.635-.311-5.269-.62a.713.713,0,0,1-.618-.418,3.58,3.58,0,0,0-2.617-1.98,1.259,1.259,0,0,1-1.019-.671,1.641,1.641,0,0,0-1.987-.66,1.725,1.725,0,0,0-1.141,1.836,1.694,1.694,0,0,0,1.513,1.5,1.659,1.659,0,0,0,1.358-.419.508.508,0,0,1,.352-.142,2.318,2.318,0,0,1,2.347,1.977q1.13,6.07,2.248,12.142.407,2.2.815,4.4c.137.732.379.937,1.135.937q5.024.006,10.049,0c1.191,0,2.382.008,3.572,0a5.145,5.145,0,0,1,3.655,1.46.822.822,0,0,0,1.087.141.781.781,0,0,0,.045-1.268,6.239,6.239,0,0,0-2.825-1.646,8.78,8.78,0,0,0-2.071-.277c-4.1-.025-8.191-.012-12.286-.012-.178,0-.356,0-.534,0a.355.355,0,0,1-.388-.331q-.178-.985-.365-1.969c-.049-.253.062-.354.3-.356.334,0,.668,0,1,0h15.491c.869,0,1.055-.159,1.235-1.017q.772-3.674,1.547-7.348C1699.328-1104.337,1699.343-1104.487,1699.374-1104.689Zm-20.829-.807c1.173.119,2.565.262,3.958.4a.4.4,0,0,1,.412.392c.032.409.065.819.091,1.229.013.211-.112.308-.31.3-.31-.013-.62-.039-.93-.061-1.03-.072-2.06-.148-3.09-.216a.491.491,0,0,1-.528-.478c-.05-.385-.14-.765-.206-1.148C1677.866-1105.521,1677.882-1105.537,1678.545-1105.5Zm3.8-.68c-.155-.017-.354-.041-.553-.061-1.261-.13-2.52-.266-3.782-.386a.423.423,0,0,1-.434-.408c-.053-.352-.123-.7-.191-1.05-.055-.28.069-.367.331-.332.3.039.6.07.894.105,1.192.141,2.385.278,3.577.423.477.058.534.13.561.611.012.222.022.444.041.665C1682.819-1106.246,1682.752-1106.17,1682.346-1106.176Zm.309,5.993c-1.155-.04-2.311-.082-3.467-.116a.392.392,0,0,1-.431-.366c-.061-.362-.134-.721-.2-1.082-.11-.586-.072-.63.532-.616.033,0,.067,0,.1,0,1.186.089,2.372.181,3.558.263a.362.362,0,0,1,.383.372c.025.321.038.643.069.964C1683.25-1100.227,1683.189-1100.156,1682.655-1100.183Zm1.359-4c0-.1,0-.172,0-.238-.026-.457.024-.519.465-.474,1.2.12,2.406.258,3.61.371.316.03.43.174.406.472s-.05.6-.055.9-.171.4-.453.378q-1.776-.137-3.552-.263c-.209-.015-.33-.1-.346-.319C1684.069-1103.643,1684.037-1103.93,1684.014-1104.18Zm4.349,3.4c0,.019,0,.131,0,.242,0,.557-.028.593-.589.574-1.044-.036-2.088-.089-3.132-.13a.317.317,0,0,1-.353-.346c-.016-.355-.052-.709-.071-1.065-.023-.433.02-.479.464-.449.965.065,1.93.131,2.893.214C1688.375-1101.676,1688.374-1101.665,1688.362-1100.784Zm-6.962,3.356c-.522,0-1.044-.013-1.566,0-.338.012-.519-.106-.561-.455-.037-.308-.114-.611-.168-.917-.068-.382-.029-.443.359-.43,1.176.037,2.351.09,3.527.133a.331.331,0,0,1,.351.357c.02.3.031.6.062.9s-.083.415-.371.412C1682.489-1097.432,1681.944-1097.428,1681.4-1097.427Zm4.993,0h0c-.478,0-.955-.011-1.432,0-.312.01-.486-.09-.491-.426a6.272,6.272,0,0,0-.054-.763c-.047-.336.1-.433.415-.417,1.042.052,2.084.1,3.126.136a.307.307,0,0,1,.337.356q-.005.366-.006.733c0,.263-.132.38-.395.377C1687.392-1097.434,1686.892-1097.429,1686.393-1097.429Zm3.041-3.263c0-.089,0-.178,0-.266.008-.58.054-.636.635-.6.908.056,1.815.133,2.722.2.194.014.283.1.26.3-.034.287-.06.574-.1.86-.055.389-.133.441-.525.42-.742-.042-1.484-.084-2.227-.109C1689.427-1099.916,1689.427-1099.907,1689.433-1100.693Zm1.545,3.265c-.223,0-.445,0-.668,0-1.2-.006-.932.11-.948-.97,0-.315.128-.445.44-.431.667.029,1.333.057,2,.068.989.016.994.023.842.992a.345.345,0,0,1-.4.342C1691.824-1097.432,1691.4-1097.428,1690.978-1097.427Zm5.176-2.275c-.6,0-1.2,0-1.8,0-.291,0-.4-.126-.342-.419a5.026,5.026,0,0,0,.084-.694.383.383,0,0,1,.474-.414c.509.042,1.018.109,1.528.115,1.078.012.879.122.71.986C1696.716-1099.649,1696.671-1099.625,1696.154-1099.7Zm-1.155,2.274h-.868c-.022,0-.045,0-.067,0-.251,0-.363-.111-.35-.368.034-.687.105-.86.4-.854.556.012,1.113.02,1.666.064.714.057.7.07.544.788a.4.4,0,0,1-.458.373C1695.578-1097.436,1695.289-1097.429,1695-1097.428Z" transform="translate(2978.991 2584.259)" fill="#fff"/>
    <path id="Path_11822" data-name="Path 11822" d="M1651.834-1164.33a6.413,6.413,0,0,1,6.413,6.413,6.413,6.413,0,0,1-6.413,6.413,6.413,6.413,0,0,1-6.413-6.413A6.413,6.413,0,0,1,1651.834-1164.33Zm0,11.432a5.019,5.019,0,0,0,5.019-5.019,5.019,5.019,0,0,0-5.019-5.019,5.019,5.019,0,0,0-5.02,5.019A5.019,5.019,0,0,0,1651.834-1152.9Z" transform="translate(3021.76 2631.33)" fill="#fff"/>
    <path id="Path_11823" data-name="Path 11823" d="M1711.384-1098.309a.559.559,0,0,1-.37-.605c.01-.839,0-1.678,0-2.545-.049.038-.083.062-.114.088-.252.209-.5.419-.756.627a.476.476,0,0,1-.689-.041.471.471,0,0,1,.081-.685q.809-.669,1.623-1.331a.467.467,0,0,1,.657,0q.814.663,1.623,1.332a.474.474,0,0,1,.082.686.477.477,0,0,1-.69.041c-.281-.23-.56-.464-.86-.714,0,.062-.007.1-.007.145,0,.794-.007,1.588,0,2.382a.574.574,0,0,1-.367.621Z" transform="translate(2962.103 2574.035)" fill="#fff"/>
  </g>
</svg>
