<?xml version="1.0" encoding="utf-8"?>
<!-- Generator: Adobe Illustrator 24.0.1, SVG Export Plug-In . SVG Version: 6.00 Build 0)  -->
<svg version="1.1" id="Layer_1" xmlns="http://www.w3.org/2000/svg" xmlns:xlink="http://www.w3.org/1999/xlink" x="0px" y="0px"
	 viewBox="0 0 294.2 211.1" style="enable-background:new 0 0 294.2 211.1;" xml:space="preserve">
<style type="text/css">
	.st0{fill:#202836;}
</style>
<g>
	<path class="st0" d="M125.4,125.7c-5.5-9.6-10.7-18.2-15.5-27c-4.7-8.6-7.1-17.3-1.1-26.6c1.3-2,1-5.5,0.6-8.1
		c-4-26.7,16.3-48.2,49.7-40.6c15,3.4,23.9,13.7,25.6,28.8c1,8.5,3.5,16.9,4,25.4c0.3,6-0.6,12.6-3,18c-4.4,10-10.3,19.4-16.3,30.4
		c7.5,3.8,14.9,7.6,22.4,11.3c5.2,2.5,10.5,4.7,15.8,6.9c14.3,5.6,22.1,16.7,26,31c0.9,3.3,1.7,6.7,2.5,10.1
		c2.9,12.6,1.4,15.7-11.6,18.1c-38.4,7.2-77.1,10-116.1,5.4c-13.7-1.6-27.3-3.8-40.8-6.4c-9.7-1.9-12-4.8-9.6-14.4
		c2.4-9.7,5.6-19.5,10.4-28.2c3.1-5.6,9.2-10.2,15-13.4c11.4-6.3,23.6-11.4,35.4-17C120.9,128.4,122.8,127.1,125.4,125.7z"/>
	<path class="st0" d="M62.5,94.3c-5.2-9.3-9.6-16.8-13.8-24.4c-4.1-7.5-6.1-15.1-1.6-23.6c1.4-2.6,0.8-6.3,0.7-9.5
		c-0.6-13.1,2.9-24.7,14.8-31.3c13.5-7.5,27.6-6,40.9,1.3c3.2,1.8,5.8,5.3,7.9,8.5c3.1,4.7,3.8,8.9-1.2,13.9
		c-8.2,8.3-9,19.7-9.8,30.9c-0.3,4.5-1.1,9.1-2.4,13.4c-2.8,9.4-1.3,18.2,3.3,26.6c2.7,5.1,5.3,10.2,8.5,15
		c3.7,5.6,2.6,8.7-3.6,11.3c-9.9,4.2-19.8,8.8-29.3,13.9c-9.6,5.1-16.9,12.8-20.6,23.3c-1.6,4.4-4.1,5.4-8.4,4.7
		c-12.7-2.1-25.5-3.7-38.2-6c-7.3-1.3-8.8-4.5-7.8-11.8c2.9-22.1,13.6-37.4,35.5-44.6C45.8,103.3,53.6,98.6,62.5,94.3z"/>
	<path class="st0" d="M231.7,93.7c5.2-9.3,9.6-16.8,13.8-24.4c4.1-7.5,6.1-15.1,1.6-23.6c-1.4-2.6-0.8-6.3-0.7-9.5
		c0.6-13.1-2.9-24.7-14.8-31.3c-13.5-7.5-27.6-6-40.9,1.3c-3.2,1.8-5.8,5.3-7.9,8.5c-3.1,4.7-3.8,8.9,1.2,13.9
		c8.2,8.3,9,19.7,9.8,30.9c0.3,4.5,1.1,9.1,2.4,13.4c2.8,9.4,1.3,18.2-3.3,26.6c-2.7,5.1-5.3,10.2-8.5,15c-3.7,5.6-2.6,8.7,3.6,11.3
		c9.9,4.2,19.8,8.8,29.3,13.9c9.6,5.1,16.9,12.8,20.6,23.3c1.6,4.4,4.1,5.4,8.4,4.7c12.7-2.1,25.5-3.7,38.2-6
		c7.3-1.3,8.8-4.5,7.8-11.8c-2.9-22.1-13.6-37.4-35.5-44.6C248.4,102.7,240.6,98,231.7,93.7z"/>
</g>
</svg>
